# AST/ASF file generated using VICON BodyLanguage
# -----------------------------------------------
:version 1.10
:name VICON
:units
  mass 1.0
  length 0.45
  angle deg
:documentation
   .ast/.asf automatically generated from VICON data using
   VICON BodyBuilder and BodyLanguage model FoxedUp or BRILLIANT.MOD
:root
   order TX TY TZ RX RY RZ
   axis XYZ
   position 0 0 0  
   orientation 0 0 0 
:bonedata
  begin
     id 1 
     name lhipjoint
     direction 0.630082 -0.636569 0.44472 
     length 2.82754 
     axis 0 0 0  XYZ
  end
  begin
     id 2 
     name lfemur
     direction 0.34202 -0.939693 0  
     length 7.26371  
     axis 0 0 20  XYZ
    dof rx ry rz
    limits (-160.0 20.0)
           (-70.0 70.0)
           (-60.0 70.0)
  end
  begin
     id 3 
     name ltibia
     direction 0.34202 -0.939693 0   
     length 7.88616   
     axis 0 0 20   XYZ
    dof rx
    limits (-10.0 170.0)
  end
  begin
     id 4 
     name lfoot
     direction 0.0603448 -0.165796 0.984312   
     length 1.77861   
     axis -90 7.62852e-016 20   XYZ
    dof rx rz
    limits (-45.0 90.0)
           (-70.0 20.0)
  end
  begin
     id 5 
     name ltoes
     direction 1.53577e-011 -4.21876e-011 1   
     length 0.902235   
     axis -90 7.62852e-016 20   XYZ
    dof rx
    limits (-90.0 20.0)
  end
  begin
     id 6 
     name rhipjoint
     direction -0.656778 -0.61817 0.431866   
     length 2.9117  
     axis 0 0 0  XYZ 
  end
  begin
     id 7 
     name rfemur
     direction -0.34202 -0.939693 0   
     length 6.81603   
     axis 0 0 -20   XYZ
    dof rx ry rz
    limits (-160.0 20.0)
           (-70.0 70.0)
           (-70.0 60.0)
  end
  begin
     id 8 
     name rtibia
     direction -0.34202 -0.939693 0   
     length 8.05997   
     axis 0 0 -20   XYZ
    dof rx
    limits (-10.0 170.0)
 end
 begin
     id 9 
     name rfoot
     direction -0.0862404 -0.236944 0.967688   
     length 1.84899  
     axis -90 -7.62852e-016 -20   XYZ
    dof rx rz
    limits (-45.0 90.0)
           (-20.0 70.0)
  end
  begin
     id 10 
     name rtoes
     direction -1.53561e-011 -4.21798e-011 1   
     length 0.931579   
     axis -90 -7.62852e-016 -20   XYZ
    dof rx
    limits (-90.0 20.0)
  end
  begin
     id 11 
     name lowerback
     direction -0.0110203 0.991769 -0.127564   
     length 2.05686   
     axis 0 0 0   XYZ
    dof rx ry rz
    limits (-20.0 45.0)
           (-30.0 30.0)
           (-30.0 30.0)
  end
  begin
     id 12 
     name upperback
     direction 0.0109719 0.99993 -0.00432479   
     length 2.06234   
     axis 0 0 0   XYZ
    dof rx ry rz
    limits (-20.0 45.0)
           (-30.0 30.0)
           (-30.0 30.0)
  end
  begin
     id 13 
     name thorax
     direction 0.0173308 0.998351 0.0547306   
     length 2.09856   
     axis 0 0 0   XYZ
    dof rx ry rz
    limits (-20.0 45.0)
           (-30.0 30.0)
           (-30.0 30.0)
  end
  begin
     id 14 
     name lowerneck
     direction -0.0311736 0.989033 0.144366   
     length 1.98151   
     axis 0 0 0   XYZ
    dof rx ry rz
    limits (-20.0 45.0)
           (-30.0 30.0)
           (-30.0 30.0)
  end
  begin
     id 15 
     name upperneck
     direction 0.0421057 0.975772 -0.214698   
     length 2.01457   
     axis 0 0 0   XYZ
    dof rx ry rz
    limits (-20.0 45.0)
           (-30.0 30.0)
           (-30.0 30.0)
  end
  begin
     id 16
     name head
     direction 0.0136911 0.995958 -0.0887718  
     length 2.03562  
     axis 0 0 0   XYZ
    dof rx ry rz
    limits (-20.0 45.0)
           (-30.0 30.0)
           (-30.0 30.0)
  end
  begin
     id 17 
     name lclavicle
     direction 0.915335 0.396201 0.0720134  
     length 4.16217  
     axis 0 0 0   XYZ
    dof ry rz
    limits (-20.0 10.0)
           (0.0 20.0)
  end
  begin
     id 18 
     name lhumerus
     direction 1 -4.48965e-011 6.383e-018   
     length 4.93042   
     axis -180 -30 -90   XYZ
    dof rx ry rz
    limits (-60.0 90.0)
           (-90.0 90.0)
           (-90.0 90.0)
  end
  begin
     id 19
     name lradius
     direction 1 -4.48972e-011 8.8689e-027   
     length 3.68177   
     axis -180 -30 -90   XYZ
    dof rx
    limits (-10.0 170.0)
  end
  begin
     id 20
     name lwrist
     direction 1 -4.48953e-011 1.17971e-026   
     length 1.84089   
     axis -7.69454e-015 90 90   XYZ
    dof ry
    limits (-180.0 0.0)
 end
  begin
     id 21 
     name lhand
     direction 1 -4.49027e-011 2.35802e-026   
     length 0.721479   
     axis -1.50533e-014 90 90   XYZ
    dof rx rz
    limits (-90.0 90.0)
           (-45.0 45.0)
  end
  begin
     id 22 
     name lfingers
     direction 1 -4.48915e-011 4.72027e-026   
     length 0.581675   
     axis -3.01059e-014 90 90   XYZ
    dof rx
    limits (0.0 90.0)
  end
  begin
     id 23
     name lthumb
     direction 0.707107 -6.34948e-011 0.707107   
     length 0.835172   
     axis -90 45 -5.12164e-014   XYZ
    dof rx rz
    limits (-45.0 45.0)
           (-45.0 45.0)
  end
  begin
     id 24 
     name rclavicle
     direction -0.882781 0.469197 0.0234974   
     length 3.95647  
     axis 0 0 0   XYZ 
    dof ry rz
    limits (-10.0 20.0)
           (-20.0 0.0)
  end
  begin
     id 25 
     name rhumerus
     direction -1 -4.48965e-011 -1.54906e-018  
     length 5.07905   
     axis -180 30 90   XYZ
    dof rx ry rz
    limits (-90.0 60.0)
           (-90.0 90.0)
           (-90.0 90.0)
  end
  begin
     id 26 
     name rradius
     direction -1 -4.48972e-011 5.47489e-027   
     length 3.54394   
     axis -180 30 90   XYZ
    dof rx
    limits (-10.0 170.0)
  end
  begin
     id 27 
     name rwrist
     direction -1 -4.48955e-011 1.17969e-026   
     length 1.77197   
     axis -7.69454e-015 -90 -90   XYZ
    dof ry
    limits (-180.0 0.0)
  end
  begin
     id 28
     name rhand
     direction -1 -4.48982e-011 2.35888e-026   
     length 0.681156   
     axis -1.50533e-014 -90 -90   XYZ
    dof rx rz
    limits (-90.0 90.0)
           (-45.0 45.0)
  end
  begin
     id 29
     name rfingers
     direction -1 -4.48955e-011 4.71877e-026   
     length 0.549165   
     axis -3.01059e-014 -90 -90   XYZ
    dof rx
    limits (0.0 90.0)
  end
  begin
     id 30
     name rthumb
     direction -0.707107 -6.3491e-011 0.707107   
     length 0.788495   
     axis -90 -45 5.12164e-014   XYZ
    dof rx rz
    limits (-45.0 45.0)
           (-45.0 45.0)
  end
:hierarchy
  begin
    root lhipjoint rhipjoint lowerback
    lhipjoint lfemur
    lfemur ltibia
    ltibia lfoot
    lfoot ltoes
    rhipjoint rfemur
    rfemur rtibia
    rtibia rfoot
    rfoot rtoes
    lowerback upperback
    upperback thorax
    thorax lowerneck lclavicle rclavicle
    lowerneck upperneck
    upperneck head
    lclavicle lhumerus
    lhumerus lradius
    lradius lwrist
    lwrist lhand lthumb
    lhand lfingers
    rclavicle rhumerus
    rhumerus rradius
    rradius rwrist
    rwrist rhand rthumb
    rhand rfingers
  end

#!OML:ASF H:\Bending\Project 1\Capture day 1\Session 1\Subject.ASF
:FULLY-SPECIFIED
:DEGREES
79
root -10.8242 18.2475 -16.3265 -123.631 86.1287 -134.773
lowerback 15.1461 -0.0190014 1.52188
upperback 2.93182 0.501108 2.05727
thorax -5.38564 0.301331 1.2064
lowerneck -22.285 -3.53941 -4.10847
upperneck 33.9437 -2.51113 -0.652773
head 15.8473 -1.4296 0.00409122
rclavicle 9.24349e-015 1.35174e-014
rhumerus -20.6394 -3.13821 -81.8454
rradius 29.1061
rwrist 22.0236
rhand -21.5356 -19.4516
rfingers 7.12502
rthumb 4.85724 -49.3759
lclavicle 9.24349e-015 1.35174e-014
lhumerus -20.0854 -1.96533 93.3105
lradius 27.4209
lwrist 17.579
lhand -33.1205 6.7751
lfingers 7.12502
lthumb -6.33056 36.6605
rfemur -6.94718 -8.24413 19.0982
rtibia 7.95139e-015
rfoot -4.60215 -10.9234
rtoes 2.20686
lfemur -18.938 -9.16444 -8.2882
ltibia 21.5964
lfoot -18.0295 9.09302
ltoes -0.457916
80
root -10.88 18.2624 -16.3197 -122.544 86.1126 -134.457
lowerback 15.8749 0.00700632 1.52853
upperback 3.23817 0.568629 2.03338
thorax -5.45768 0.342452 1.16278
lowerneck -22.3026 -3.5623 -4.22072
upperneck 33.5225 -2.6039 -0.461345
head 15.6549 -1.46277 0.0869961
rclavicle 4.37326e-015 2.76311e-014
rhumerus -19.466 -3.87568 -82.0735
rradius 29.5313
rwrist 21.5202
rhand -21.6725 -19.2771
rfingers 7.12502
rthumb 4.72498 -49.2044
lclavicle 4.37326e-015 2.76311e-014
lhumerus -19.0119 -3.02582 93.5467
lradius 27.964
lwrist 17.8093
lhand -33.1166 6.69737
lfingers 7.12502
lthumb -6.32681 36.5829
rfemur -8.05301 -8.23516 19.2906
rtibia -2.14687e-014
rfoot -4.25333 -10.8891
rtoes 2.44369
lfemur -20.0638 -8.79679 -8.06876
ltibia 21.6842
lfoot -17.6862 8.9179
ltoes -0.364057
81
root -10.9372 18.277 -16.3138 -121.346 86.0667 -134.088
lowerback 16.6202 0.0174153 1.56331
upperback 3.52119 0.622533 2.01578
thorax -5.5604 0.376596 1.11173
lowerneck -22.2655 -3.56978 -4.25987
upperneck 33.0719 -2.67079 -0.359975
head 15.4349 -1.48858 0.124601
rclavicle -1.21259e-014 -9.93923e-015
rhumerus -18.2698 -4.33037 -82.3712
rradius 29.9919
rwrist 20.9701
rhand -21.7567 -19.2754
rfingers 7.12502
rthumb 4.64367 -49.2045
lclavicle -1.21259e-014 -9.93923e-015
lhumerus -17.9134 -4.04034 93.7302
lradius 28.4925
lwrist 18.011
lhand -33.0874 6.62117
lfingers 7.12502
lthumb -6.29855 36.5075
rfemur -9.22692 -8.2351 19.5174
rtibia -1.78906e-014
rfoot -3.91153 -10.8483
rtoes 2.64998
lfemur -21.2796 -8.46296 -7.80945
ltibia 21.8043
lfoot -17.3723 8.75572
ltoes -0.0486367
82
root -10.9954 18.2905 -16.3089 -120.09 86.0023 -133.693
lowerback 17.4031 0.015341 1.60584
upperback 3.78775 0.66537 2.0118
thorax -5.69801 0.405513 1.07226
lowerneck -22.1804 -3.557 -4.22625
upperneck 32.5885 -2.69752 -0.368895
head 15.1873 -1.50426 0.111977
rclavicle -2.20651e-014 -5.30755e-014
rhumerus -17.0098 -4.41711 -82.7008
rradius 30.3992
rwrist 20.4168
rhand -21.8187 -19.4327
rfingers 7.12502
rthumb 4.58388 -49.3631
lclavicle -2.20651e-014 -5.30755e-014
lhumerus -16.7844 -4.99562 93.8735
lradius 29.0039
lwrist 18.2109
lhand -33.0075 6.56934
lfingers 7.12502
lthumb -6.22143 36.458
rfemur -10.445 -8.23641 19.7686
rtibia 1.59028e-015
rfoot -3.54224 -10.8206
rtoes 2.48726
lfemur -22.5584 -8.12629 -7.53613
ltibia 21.9657
lfoot -17.0669 8.6084
ltoes 0.240415
83
root -11.0545 18.302 -16.3051 -118.939 85.9318 -133.403
lowerback 18.2366 0.00854368 1.64858
upperback 4.05188 0.706683 2.01622
thorax -5.86229 0.434251 1.04117
lowerneck -22.064 -3.5332 -4.14632
upperneck 32.0704 -2.69761 -0.461552
head 14.9175 -1.51503 0.0628412
rclavicle -6.36111e-015 -1.74931e-014
rhumerus -15.7089 -4.24795 -83.0185
rradius 30.7585
rwrist 19.9973
rhand -21.8535 -19.6509
rfingers 7.12502
rthumb 4.55028 -49.582
lclavicle -6.36111e-015 -1.74931e-014
lhumerus -15.606 -5.92124 93.982
lradius 29.4915
lwrist 18.4443
lhand -32.8856 6.55328
lfingers 7.12502
lthumb -6.10374 36.4454
rfemur -11.6776 -8.23935 20.025
rtibia 3.18055e-014
rfoot -3.12377 -10.8157
rtoes 1.80875
lfemur -23.8693 -7.76 -7.28234
ltibia 22.17
lfoot -16.7429 8.4724
ltoes 0.30669
84
root -11.1142 18.3117 -16.3024 -118.068 85.8668 -133.378
lowerback 19.1168 0.00302478 1.69793
upperback 4.32943 0.754831 2.01372
thorax -6.03339 0.467084 0.996424
lowerneck -21.9299 -3.51286 -4.05093
upperneck 31.511 -2.69942 -0.587506
head 14.6285 -1.52948 -0.00151808
rclavicle 3.37934e-015 2.78299e-015
rhumerus -14.3503 -3.82057 -83.3032
rradius 31.0469
rwrist 19.6619
rhand -21.8878 -19.8366
rfingers 7.12502
rthumb 4.51715 -49.7685
lclavicle 3.37934e-015 2.78299e-015
lhumerus -14.3535 -6.86488 94.0471
lradius 29.9471
lwrist 18.7471
lhand -32.7731 6.57687
lfingers 7.12502
lthumb -5.99516 36.4721
rfemur -12.9013 -8.25019 20.2646
rtibia -5.56597e-015
rfoot -2.65777 -10.8304
rtoes 0.741578
lfemur -25.1903 -7.35234 -7.07851
ltibia 22.4128
lfoot -16.3813 8.33481
ltoes 0.118881
85
root -11.1742 18.32 -16.3009 -117.606 85.8156 -133.746
lowerback 20.0211 -0.00180807 1.76431
upperback 4.63071 0.809442 1.9878
thorax -6.18688 0.503885 0.914162
lowerneck -21.7807 -3.50523 -3.95781
upperneck 30.9011 -2.72567 -0.704153
head 14.3192 -1.55342 -0.0644992
rclavicle 2.48481e-014 5.30755e-014
rhumerus -12.9383 -3.17239 -83.5454
rradius 31.2788
rwrist 19.3703
rhand -21.9459 -19.9074
rfingers 7.12502
rthumb 4.46105 -49.8404
lclavicle 2.48481e-014 5.30755e-014
lhumerus -13.0081 -7.85355 94.0488
lradius 30.3662
lwrist 19.1449
lhand -32.7459 6.64233
lfingers 7.12502
lthumb -5.9689 36.5383
rfemur -14.1084 -8.27731 20.4682
rtibia 1.33186e-014
rfoot -2.16738 -10.8522
rtoes -0.378758
lfemur -26.5178 -6.90164 -6.94454
ltibia 22.6887
lfoot -15.98 8.17245
ltoes -0.171763
86
root -11.234 18.3271 -16.3006 -117.58 85.7818 -134.552
lowerback 20.9131 -0.0133791 1.84828
upperback 4.95484 0.859169 1.93086
thorax -6.30362 0.539164 0.788502
lowerneck -21.6083 -3.5081 -3.86676
upperneck 30.2371 -2.7778 -0.798366
head 13.9874 -1.58574 -0.120784
rclavicle 0 -2.04748e-014
rhumerus -11.4751 -2.31446 -83.7408
rradius 31.4699
rwrist 19.0786
rhand -22.0449 -19.8362
rfingers 7.12502
rthumb 4.36543 -49.7712
lclavicle 0 -2.04748e-014
lhumerus -11.5661 -8.8626 93.9663
lradius 30.7484
lwrist 19.6411
lhand -32.8629 6.7527
lfingers 7.12502
lthumb -6.08181 36.6454
rfemur -15.3129 -8.32632 20.6274
rtibia 3.99557e-014
rfoot -1.68364 -10.8686
rtoes -1.19422
lfemur -27.87 -6.40474 -6.88732
ltibia 22.9952
lfoot -15.5512 7.95604
ltoes -0.331989
87
root -11.2931 18.3329 -16.3014 -117.908 85.7635 -135.744
lowerback 21.7552 -0.0414032 1.93343
upperback 5.28863 0.886594 1.85009
thorax -6.37831 0.564468 0.641278
lowerneck -21.4045 -3.50926 -3.76795
upperneck 29.5313 -2.83413 -0.888409
head 13.637 -1.61852 -0.175267
rclavicle -1.0138e-014 -2.18663e-014
rhumerus -9.95482 -1.23184 -83.8788
rradius 31.6179
rwrist 18.7666
rhand -22.1765 -19.6573
rfingers 7.12502
rthumb 4.23837 -49.5948
lclavicle -1.0138e-014 -2.18663e-014
lhumerus -10.0412 -9.81412 93.7914
lradius 31.0932
lwrist 20.2112
lhand -33.1261 6.90859
lfingers 7.12502
lthumb -6.33597 36.7938
rfemur -16.5442 -8.3963 20.7487
rtibia 4.6615e-014
rfoot -1.2293 -10.8733
rtoes -1.51413
lfemur -29.2776 -5.85323 -6.90069
ltibia 23.334
lfoot -15.1141 7.66235
ltoes -0.198607
88
root -11.3503 18.3363 -16.3025 -118.408 85.7536 -137.167
lowerback 22.5206 -0.0914626 1.99132
upperback 5.61142 0.87752 1.76463
thorax -6.42093 0.572689 0.514019
lowerneck -21.1722 -3.49484 -3.65781
upperneck 28.8172 -2.86383 -1.0028
head 13.2826 -1.64158 -0.234525
rclavicle -8.54774e-015 -1.68967e-014
rhumerus -8.36245 0.0962677 -83.9358
rradius 31.6994
rwrist 18.4447
rhand -22.2951 -19.4462
rfingers 7.12502
rthumb 4.12384 -49.3861
lclavicle -8.54774e-015 -1.68967e-014
lhumerus -8.4572 -10.608 93.5354
lradius 31.3924
lwrist 20.8064
lhand -33.4661 7.10324
lfingers 7.12502
lthumb -6.66413 36.9784
rfemur -17.835 -8.47871 20.8527
rtibia -2.8128e-014
rfoot -0.80837 -10.8677
rtoes -1.40166
lfemur -30.7682 -5.23733 -6.96849
ltibia 23.7076
lfoot -14.685 7.28587
ltoes 0.2129
